<svg width="1985" height="582" xmlns="http://www.w3.org/2000/svg" xmlns:xlink="http://www.w3.org/1999/xlink" xml:space="preserve" overflow="hidden"><defs><clipPath id="clip0"><rect x="1240" y="537" width="542" height="579"/></clipPath><clipPath id="clip1"><rect x="1240" y="537" width="542" height="579"/></clipPath><clipPath id="clip2"><rect x="2016" y="540" width="1205" height="578"/></clipPath><clipPath id="clip3"><rect x="2016" y="540" width="1205" height="578"/></clipPath></defs><g transform="translate(-1237 -536)"><g><g clip-path="url(#clip0)"><g clip-path="url(#clip1)"><g><g><g><g><path d="M966.506 143.801C966.506 164.427 949.891 181.041 929.268 181.041 908.642 181.041 892.027 164.427 892.027 143.801 892.027 123.177 908.068 106.562 929.268 106.562 950.464 107.135 966.506 123.749 966.506 143.801ZM812.966 218.853C812.966 222.291 812.966 228.02 812.966 228.02 812.966 228.02 795.204 205.103 757.393 205.103 694.945 205.103 646.247 252.655 646.247 318.54 646.247 383.851 694.371 431.976 757.393 431.976 795.778 431.976 812.966 408.489 812.966 408.489L812.966 418.228C812.966 422.81 816.404 426.247 820.986 426.247L867.393 426.247 867.393 210.832C867.393 210.832 824.997 210.832 820.986 210.832 816.404 210.832 812.966 214.843 812.966 218.853ZM812.966 356.927C804.371 369.531 787.185 380.414 766.559 380.414 729.892 380.414 701.82 357.497 701.82 318.54 701.82 279.582 729.892 256.665 766.559 256.665 786.612 256.665 804.944 268.124 812.966 280.155L812.966 356.927ZM901.766 210.832 956.766 210.832 956.766 426.247 901.766 426.247 901.766 210.832ZM1723.33 205.103C1685.51 205.103 1667.75 228.02 1667.75 228.02L1667.75 107.135 1612.75 107.135 1612.75 426.247C1612.75 426.247 1655.15 426.247 1659.16 426.247 1663.74 426.247 1667.18 422.236 1667.18 418.228L1667.18 408.489C1667.18 408.489 1684.94 431.976 1722.75 431.976 1785.2 431.976 1833.9 383.851 1833.9 318.54 1833.9 253.228 1785.2 205.103 1723.33 205.103ZM1714.16 379.844C1692.96 379.844 1676.35 368.957 1667.75 356.353L1667.75 279.582C1676.35 268.124 1694.68 256.093 1714.16 256.093 1750.83 256.093 1778.9 279.009 1778.9 317.967 1778.9 356.927 1750.83 379.844 1714.16 379.844ZM1584.11 298.488 1584.11 426.821 1529.11 426.821 1529.11 304.79C1529.11 269.27 1517.65 254.947 1486.71 254.947 1470.1 254.947 1452.91 263.54 1442.02 276.145L1442.02 426.247 1387.02 426.247 1387.02 210.832 1430.57 210.832C1435.15 210.832 1438.59 214.843 1438.59 218.853L1438.59 228.02C1454.63 211.405 1475.83 205.103 1497.02 205.103 1521.09 205.103 1541.14 211.978 1557.18 225.728 1576.66 241.77 1584.11 262.395 1584.11 298.488ZM1253.53 205.103C1215.72 205.103 1197.96 228.02 1197.96 228.02L1197.96 107.135 1142.97 107.135 1142.97 426.247C1142.97 426.247 1185.36 426.247 1189.37 426.247 1193.95 426.247 1197.39 422.236 1197.39 418.228L1197.39 408.489C1197.39 408.489 1215.15 431.976 1252.96 431.976 1315.41 431.976 1364.11 383.851 1364.11 318.54 1364.68 253.228 1315.98 205.103 1253.53 205.103ZM1244.37 379.844C1223.17 379.844 1206.56 368.957 1197.96 356.353L1197.96 279.582C1206.56 268.124 1224.89 256.093 1244.37 256.093 1281.04 256.093 1309.11 279.009 1309.11 317.967 1309.11 356.927 1281.04 379.844 1244.37 379.844ZM1095.41 205.103C1112.03 205.103 1120.62 207.968 1120.62 207.968L1120.62 258.957C1120.62 258.957 1074.79 243.488 1046.14 276.145L1046.14 426.821 991.143 426.821 991.143 210.832C991.143 210.832 1033.54 210.832 1037.55 210.832 1042.13 210.832 1045.57 214.843 1045.57 218.853L1045.57 228.02C1055.88 215.989 1078.23 205.103 1095.41 205.103ZM524.217 406.768C521.353 399.893 518.488 392.447 515.624 386.146 511.04 375.832 506.455 366.093 502.447 356.927L501.873 356.353C462.342 270.416 419.946 183.333 375.259 97.3955L373.542 93.9578C368.957 85.3642 364.372 76.1975 359.791 67.031 354.063 56.7186 348.331 45.833 339.165 35.5206 320.832 12.6041 294.478 0 266.405 0 237.759 0 211.978 12.6041 193.072 34.375 184.479 44.6874 178.176 55.5726 172.447 65.885 167.864 75.0518 163.28 84.2185 158.697 92.8121L156.979 96.2494C112.864 182.187 69.8956 269.27 30.3644 355.206L29.7915 356.353C25.7811 365.519 21.1978 375.259 16.6145 385.572 13.7499 391.874 10.8854 398.749 8.0208 406.195 0.572915 427.395-1.71874 447.447 1.14583 468.07 7.44789 511.04 36.0935 547.134 75.6246 563.175 90.5204 569.477 105.989 572.341 122.031 572.341 126.614 572.341 132.343 571.768 136.927 571.194 155.833 568.903 175.312 562.602 194.218 551.715 217.707 538.538 240.051 519.632 265.259 492.134 290.468 519.632 313.384 538.538 336.301 551.715 355.206 562.602 374.685 568.903 393.591 571.194 398.176 571.768 403.904 572.341 408.489 572.341 424.53 572.341 440.572 569.477 454.893 563.175 494.998 547.134 523.07 510.466 529.372 468.07 533.956 448.017 531.666 427.968 524.217 406.768ZM265.832 436.561C234.895 397.602 214.843 360.935 207.968 329.999 205.103 316.821 204.531 305.363 206.249 295.051 207.395 285.884 210.832 277.863 215.416 270.988 226.301 255.52 244.634 245.78 265.832 245.78 287.03 245.78 305.936 254.947 316.249 270.988 320.832 277.863 324.269 285.884 325.415 295.051 327.134 305.363 326.561 317.395 323.696 329.999 316.821 360.364 296.769 397.029 265.832 436.561ZM494.425 463.489C490.413 493.277 470.364 519.062 442.289 530.519 428.542 536.247 413.644 537.968 398.749 536.247 384.425 534.53 370.104 529.945 355.206 521.353 334.582 509.892 313.957 492.134 289.895 465.779 327.707 419.372 350.625 376.976 359.217 339.165 363.229 321.405 363.802 305.363 362.082 290.468 359.791 276.145 354.633 262.968 346.614 251.509 328.853 225.728 299.061 210.832 265.832 210.832 232.603 210.832 202.812 226.301 185.051 251.509 177.031 262.968 171.874 276.145 169.583 290.468 167.291 305.363 167.864 321.978 172.447 339.165 181.041 376.976 204.531 419.946 241.77 466.353 218.28 492.707 197.083 510.466 176.457 521.926 161.562 530.519 147.239 535.103 132.916 536.821 117.447 538.538 102.552 536.247 89.3747 531.092 61.3017 519.632 41.2497 493.851 37.2395 464.062 35.5206 449.738 36.6666 435.414 42.3957 419.372 44.1145 413.644 46.979 407.915 49.8436 401.04 53.8538 391.874 58.4371 382.134 63.0205 372.395L63.5933 371.248C103.125 285.884 145.52 198.801 189.635 114.01L191.353 110.572C195.937 101.979 200.52 92.8121 205.103 84.2185 209.687 75.0518 214.843 66.4582 221.145 59.0103 233.176 45.2602 249.218 37.8123 266.978 37.8123 284.738 37.8123 300.78 45.2602 312.811 59.0103 319.113 66.4582 324.269 75.0518 328.853 84.2185 333.436 92.8121 338.019 101.979 342.603 110.572L344.323 114.01C387.863 199.374 430.259 286.457 469.791 371.821L469.791 372.395C474.372 381.561 478.383 391.874 482.968 401.04 485.832 407.915 488.696 413.644 490.413 419.372 494.998 434.27 496.715 448.591 494.425 463.489Z" fill="#FE385C" fill-rule="nonzero" fill-opacity="1" transform="matrix(1 0 0 1.00083 1241 538.376)"/></g></g></g></g></g></g><g clip-path="url(#clip2)"><g clip-path="url(#clip3)"><g><g><g><g><path d="M965.874 143.707C965.874 164.319 949.27 180.922 928.66 180.922 908.048 180.922 891.444 164.319 891.444 143.707 891.444 123.096 907.474 106.493 928.66 106.493 949.843 107.065 965.874 123.668 965.874 143.707ZM812.435 218.71C812.435 222.145 812.435 227.871 812.435 227.871 812.435 227.871 794.685 204.969 756.898 204.969 694.49 204.969 645.824 252.49 645.824 318.332 645.824 383.6 693.917 431.693 756.898 431.693 795.258 431.693 812.435 408.222 812.435 408.222L812.435 417.955C812.435 422.533 815.87 425.969 820.449 425.969L866.826 425.969 866.826 210.695C866.826 210.695 824.457 210.695 820.449 210.695 815.87 210.695 812.435 214.702 812.435 218.71ZM812.435 356.693C803.845 369.289 786.671 380.165 766.058 380.165 729.414 380.165 701.361 357.263 701.361 318.332 701.361 279.399 729.414 256.498 766.058 256.498 786.098 256.498 804.418 267.949 812.435 279.972L812.435 356.693ZM901.177 210.695 956.141 210.695 956.141 425.969 901.177 425.969 901.177 210.695ZM1722.2 204.969C1684.41 204.969 1666.66 227.871 1666.66 227.871L1666.66 107.065 1611.7 107.065 1611.7 425.969C1611.7 425.969 1654.07 425.969 1658.07 425.969 1662.66 425.969 1666.09 421.96 1666.09 417.955L1666.09 408.222C1666.09 408.222 1683.84 431.693 1721.63 431.693 1784.03 431.693 1832.7 383.6 1832.7 318.332 1832.7 253.062 1784.03 204.969 1722.2 204.969ZM1713.04 379.595C1691.86 379.595 1675.25 368.716 1666.66 356.12L1666.66 279.399C1675.25 267.949 1693.57 255.925 1713.04 255.925 1749.68 255.925 1777.74 278.827 1777.74 317.76 1777.74 356.693 1749.68 379.595 1713.04 379.595ZM1583.07 298.293 1583.07 426.542 1528.11 426.542 1528.11 304.591C1528.11 269.093 1516.66 254.78 1485.74 254.78 1469.14 254.78 1451.96 263.368 1441.08 275.964L1441.08 425.969 1386.12 425.969 1386.12 210.695 1429.63 210.695C1434.21 210.695 1437.65 214.702 1437.65 218.71L1437.65 227.871C1453.68 211.267 1474.86 204.969 1496.05 204.969 1520.09 204.969 1540.13 211.84 1556.16 225.581 1575.63 241.612 1583.07 262.223 1583.07 298.293ZM1252.72 204.969C1214.93 204.969 1197.18 227.871 1197.18 227.871L1197.18 107.065 1142.22 107.065 1142.22 425.969C1142.22 425.969 1184.58 425.969 1188.59 425.969 1193.17 425.969 1196.61 421.96 1196.61 417.955L1196.61 408.222C1196.61 408.222 1214.36 431.693 1252.15 431.693 1314.55 431.693 1363.22 383.6 1363.22 318.332 1363.79 253.062 1315.12 204.969 1252.72 204.969ZM1243.56 379.595C1222.37 379.595 1205.77 368.716 1197.18 356.12L1197.18 279.399C1205.77 267.949 1224.09 255.925 1243.56 255.925 1280.2 255.925 1308.25 278.827 1308.25 317.76 1308.25 356.693 1280.2 379.595 1243.56 379.595ZM1094.69 204.969C1111.3 204.969 1119.89 207.832 1119.89 207.832L1119.89 258.788C1119.89 258.788 1074.09 243.329 1045.46 275.964L1045.46 426.542 990.495 426.542 990.495 210.695C990.495 210.695 1032.86 210.695 1036.87 210.695 1041.45 210.695 1044.89 214.702 1044.89 218.71L1044.89 227.871C1055.19 215.847 1077.52 204.969 1094.69 204.969ZM523.874 406.502C521.012 399.631 518.149 392.191 515.287 385.893 510.705 375.587 506.124 365.853 502.118 356.693L501.545 356.12C462.039 270.239 419.671 183.213 375.014 97.3318L373.298 93.8963C368.716 85.3084 364.134 76.1476 359.556 66.9872 353.831 56.6815 348.103 45.8031 338.943 35.4974 320.622 12.5959 294.286 0 266.231 0 237.604 0 211.84 12.5959 192.946 34.3525 184.358 44.6581 178.06 55.5363 172.334 65.842 167.754 75.0027 163.174 84.1635 158.593 92.7514L156.876 96.1865C112.79 182.068 69.8499 269.093 30.3446 354.974L29.7721 356.12C25.7643 365.28 21.184 375.014 16.6036 385.32 13.741 391.618 10.8782 398.489 8.01555 405.929 0.57254 427.115-1.71762 447.155 1.14508 467.764 7.44302 510.705 36.0699 546.776 75.5752 562.807 90.4612 569.105 105.92 571.967 121.951 571.967 126.531 571.967 132.257 571.394 136.837 570.821 155.731 568.531 175.197 562.234 194.091 551.354 217.565 538.186 239.894 519.292 265.086 491.812 290.278 519.292 313.179 538.186 336.081 551.354 354.974 562.234 374.44 568.531 393.334 570.821 397.915 571.394 403.64 571.967 408.222 571.967 424.253 571.967 440.284 569.105 454.595 562.807 494.674 546.776 522.728 510.132 529.026 467.764 533.607 447.724 531.318 427.688 523.874 406.502ZM265.658 436.275C234.741 397.342 214.702 360.699 207.832 329.783 204.969 316.614 204.397 305.164 206.114 294.858 207.259 285.697 210.695 277.682 215.275 270.811 226.153 255.353 244.475 245.619 265.658 245.619 286.843 245.619 305.736 254.78 316.042 270.811 320.622 277.682 324.057 285.697 325.203 294.858 326.92 305.164 326.347 317.187 323.485 329.783 316.614 360.129 296.575 396.769 265.658 436.275ZM494.101 463.186C490.093 492.955 470.057 518.723 442 530.172 428.261 535.896 413.373 537.616 398.489 535.896 384.174 534.18 369.862 529.599 354.974 521.012 334.363 509.559 313.752 491.812 289.705 465.475 327.493 419.098 350.396 376.73 358.983 338.943 362.991 321.195 363.564 305.164 361.845 290.278 359.556 275.964 354.401 262.796 346.387 251.345 328.638 225.581 298.866 210.695 265.658 210.695 232.451 210.695 202.679 226.153 184.93 251.345 176.915 262.796 171.762 275.964 169.472 290.278 167.182 305.164 167.754 321.767 172.334 338.943 180.922 376.73 204.397 419.671 241.612 466.048 218.138 492.385 196.954 510.132 176.342 521.585 161.456 530.172 147.143 534.754 132.829 536.47 117.371 538.186 102.485 535.896 89.3163 530.745 61.2616 519.292 41.2227 493.528 37.2151 463.759 35.4974 449.444 36.6427 435.129 42.368 419.098 44.0857 413.373 46.9483 407.649 49.811 400.778 53.8186 391.618 58.3989 381.884 62.9793 372.151L63.5518 371.005C103.057 285.697 145.425 198.671 189.511 113.936L191.228 110.5C195.808 101.912 200.389 92.7514 204.969 84.1635 209.55 75.0027 214.702 66.4148 221 58.9717 233.024 45.2306 249.055 37.7876 266.803 37.7876 284.552 37.7876 300.583 45.2306 312.607 58.9717 318.904 66.4148 324.057 75.0027 328.638 84.1635 333.218 92.7514 337.798 101.912 342.379 110.5L344.098 113.936C387.609 199.244 429.977 286.27 469.483 371.578L469.483 372.151C474.062 381.311 478.07 391.618 482.652 400.778 485.514 407.649 488.377 413.373 490.093 419.098 494.674 433.986 496.39 448.297 494.101 463.186Z" fill="#FE385C" fill-rule="nonzero" fill-opacity="1" transform="matrix(1 0 0 1.00322 1388.3 540.377)"/></g></g></g></g></g></g><g><g><g><g><path d="M70.974 524.511 70.974 227.42C70.974 197.915 79.662 174.301 97.038 156.576 114.414 138.83 139.259 129.957 171.572 129.957 183.156 129.957 194.131 131.187 204.495 133.648 214.86 136.108 223.548 139.973 230.559 145.243L212.661 194.758C207.74 190.882 202.122 187.986 195.807 186.07 189.493 184.132 182.993 183.163 176.308 183.163 162.612 183.163 152.247 186.941 145.214 194.497 138.203 202.053 134.697 213.375 134.697 228.465L134.697 260.082 136.82 289.575 136.82 524.511 70.974 524.511ZM24.5943 298.002 24.5943 245.318 212.138 245.318 212.138 298.002 24.5943 298.002Z" fill="#FD395C" fill-rule="nonzero" fill-opacity="1" transform="matrix(1 0 0 1.00189 1851 443.135)"/></g></g></g></g></g></g></svg>