<svg xmlns="http://www.w3.org/2000/svg" xmlns:xlink="http://www.w3.org/1999/xlink" width="1000" zoomAndPan="magnify" viewBox="0 0 750 749.999995" height="1000" preserveAspectRatio="xMidYMid meet" version="1.0"><rect x="-75" width="900" fill="#ffffff" y="-74.999999" height="899.999994" fill-opacity="1"/><rect x="-75" width="900" fill="#1877f2" y="-74.999999" height="899.999994" fill-opacity="1"/><path fill="#1877f2" d="M 750 375 C 750 167.894531 582.105469 0 375 0 C 167.894531 0 0 167.894531 0 375 C 0 562.175781 137.132812 717.3125 316.40625 745.445312 L 316.40625 483.398438 L 221.191406 483.398438 L 221.191406 375 L 316.40625 375 L 316.40625 292.382812 C 316.40625 198.398438 372.390625 146.484375 458.050781 146.484375 C 499.078125 146.484375 541.992188 153.808594 541.992188 153.808594 L 541.992188 246.09375 L 494.707031 246.09375 C 448.121094 246.09375 433.59375 275 433.59375 304.65625 L 433.59375 375 L 537.597656 375 L 520.972656 483.398438 L 433.59375 483.398438 L 433.59375 745.445312 C 612.867188 717.3125 750 562.175781 750 375 " fill-opacity="1" fill-rule="nonzero"/><path fill="#ffffff" d="M 520.972656 483.398438 L 537.597656 375 L 433.59375 375 L 433.59375 304.65625 C 433.59375 275 448.121094 246.09375 494.707031 246.09375 L 541.992188 246.09375 L 541.992188 153.808594 C 541.992188 153.808594 499.078125 146.484375 458.050781 146.484375 C 372.390625 146.484375 316.40625 198.398438 316.40625 292.382812 L 316.40625 375 L 221.191406 375 L 221.191406 483.398438 L 316.40625 483.398438 L 316.40625 745.445312 C 335.496094 748.441406 355.066406 750 375 750 C 394.933594 750 414.503906 748.441406 433.59375 745.445312 L 433.59375 483.398438 L 520.972656 483.398438 " fill-opacity="1" fill-rule="nonzero"/></svg>