<svg xmlns="http://www.w3.org/2000/svg" xmlns:xlink="http://www.w3.org/1999/xlink" width="1000" zoomAndPan="magnify" viewBox="0 0 750 749.999995" height="1000" preserveAspectRatio="xMidYMid meet" version="1.0"><rect x="-75" width="900" fill="#ffffff" y="-74.999999" height="899.999994" fill-opacity="1"/><rect x="-75" width="900" fill="#ffffff" y="-74.999999" height="899.999994" fill-opacity="1"/><path fill="#000000" d="M 690.277344 539.679688 C 587.351562 486.4375 569.089844 339.867188 662.882812 266.65625 C 663.613281 266.074219 664.3125 265.453125 664.976562 264.792969 C 665.640625 264.136719 666.269531 263.445312 666.855469 262.71875 C 667.445312 261.992188 667.996094 261.238281 668.503906 260.453125 C 669.011719 259.667969 669.476562 258.855469 669.898438 258.019531 C 670.316406 257.183594 670.691406 256.328125 671.019531 255.453125 C 671.347656 254.578125 671.628906 253.6875 671.859375 252.78125 C 672.09375 251.875 672.277344 250.960938 672.410156 250.035156 C 672.542969 249.109375 672.625 248.179688 672.660156 247.242188 C 672.691406 246.308594 672.675781 245.375 672.605469 244.441406 C 672.539062 243.507812 672.421875 242.582031 672.253906 241.664062 C 672.085938 240.742188 671.867188 239.835938 671.601562 238.9375 C 671.335938 238.039062 671.023438 237.160156 670.664062 236.296875 C 670.300781 235.433594 669.898438 234.59375 669.445312 233.773438 C 668.992188 232.957031 668.5 232.164062 667.960938 231.398438 C 667.425781 230.632812 666.847656 229.898438 666.234375 229.195312 C 665.617188 228.492188 664.964844 227.820312 664.277344 227.1875 C 660.269531 223.25 656.085938 219.503906 651.730469 215.957031 C 647.375 212.40625 642.863281 209.066406 638.199219 205.9375 C 633.53125 202.804688 628.730469 199.898438 623.792969 197.214844 C 618.855469 194.535156 613.804688 192.085938 608.636719 189.875 C 603.472656 187.660156 598.214844 185.691406 592.867188 183.96875 C 587.519531 182.246094 582.101562 180.773438 576.617188 179.554688 C 571.132812 178.335938 565.601562 177.375 560.027344 176.671875 C 554.453125 175.964844 548.859375 175.523438 543.242188 175.339844 C 475.914062 175.339844 447.589844 207.378906 400.847656 207.378906 C 354.105469 207.378906 316.183594 175.339844 257.988281 175.339844 C 199.792969 175.339844 140.050781 210.007812 101.511719 269.289062 C 47.183594 352.867188 56.472656 509.808594 144.382812 643.691406 C 175.339844 691.515625 217.746094 745.378906 272.691406 745.84375 C 321.449219 745.84375 335.378906 714.886719 401.621094 714.886719 C 467.867188 714.886719 480.246094 745.84375 529.15625 745.84375 C 584.101562 745.84375 628.367188 685.789062 659.789062 637.5 C 675.078125 614.21875 688.183594 589.761719 699.101562 564.136719 C 699.554688 563.035156 699.902344 561.902344 700.148438 560.734375 C 700.390625 559.570312 700.527344 558.390625 700.550781 557.199219 C 700.578125 556.007812 700.496094 554.824219 700.304688 553.652344 C 700.113281 552.476562 699.8125 551.328125 699.410156 550.207031 C 699.003906 549.085938 698.5 548.011719 697.898438 546.984375 C 697.296875 545.957031 696.605469 544.992188 695.824219 544.09375 C 695.042969 543.195312 694.1875 542.375 693.253906 541.632812 C 692.324219 540.890625 691.332031 540.238281 690.277344 539.679688 Z M 690.277344 539.679688 " fill-opacity="1" fill-rule="evenodd"/><path fill="#000000" d="M 408.894531 176.886719 C 417.125 174.738281 425.125 171.9375 432.902344 168.488281 C 440.675781 165.039062 448.121094 160.988281 455.238281 156.328125 C 462.355469 151.671875 469.050781 146.472656 475.320312 140.730469 C 481.59375 134.988281 487.363281 128.773438 492.628906 122.097656 C 497.523438 115.902344 501.976562 109.410156 505.996094 102.617188 C 510.011719 95.828125 513.558594 88.796875 516.632812 81.527344 C 519.703125 74.257812 522.273438 66.816406 524.347656 59.199219 C 526.417969 51.585938 527.96875 43.863281 529.003906 36.039062 C 529.058594 35.492188 529.09375 34.945312 529.113281 34.394531 C 529.136719 33.84375 529.140625 33.292969 529.125 32.742188 C 529.113281 32.191406 529.082031 31.640625 529.03125 31.09375 C 528.984375 30.542969 528.917969 29.996094 528.835938 29.453125 C 528.753906 28.90625 528.65625 28.367188 528.539062 27.828125 C 528.421875 27.289062 528.289062 26.753906 528.140625 26.226562 C 527.992188 25.695312 527.828125 25.171875 527.644531 24.652344 C 527.460938 24.128906 527.265625 23.617188 527.050781 23.109375 C 526.835938 22.601562 526.605469 22.101562 526.359375 21.609375 C 526.113281 21.117188 525.855469 20.632812 525.578125 20.15625 C 525.300781 19.675781 525.011719 19.210938 524.707031 18.75 C 524.402344 18.292969 524.082031 17.84375 523.75 17.40625 C 523.417969 16.964844 523.070312 16.539062 522.710938 16.121094 C 522.351562 15.703125 521.980469 15.296875 521.59375 14.90625 C 521.210938 14.511719 520.8125 14.128906 520.402344 13.761719 C 519.996094 13.390625 519.574219 13.035156 519.144531 12.691406 C 518.714844 12.347656 518.273438 12.019531 517.820312 11.703125 C 517.367188 11.390625 516.90625 11.089844 516.4375 10.800781 C 515.96875 10.515625 515.488281 10.242188 515 9.988281 C 514.515625 9.730469 514.019531 9.488281 513.515625 9.261719 C 513.015625 9.039062 512.503906 8.828125 511.988281 8.632812 C 511.472656 8.441406 510.953125 8.261719 510.425781 8.101562 C 509.898438 7.9375 509.367188 7.792969 508.832031 7.664062 C 508.296875 7.539062 507.757812 7.425781 507.214844 7.332031 C 506.671875 7.238281 506.128906 7.160156 505.582031 7.097656 C 505.035156 7.039062 504.484375 6.992188 503.933594 6.96875 C 503.382812 6.941406 502.835938 6.933594 502.285156 6.941406 C 501.734375 6.949219 501.183594 6.972656 500.632812 7.015625 C 500.085938 7.058594 499.539062 7.117188 498.992188 7.195312 C 498.445312 7.269531 497.902344 7.363281 497.363281 7.472656 C 496.824219 7.585938 496.289062 7.710938 495.757812 7.855469 C 495.226562 8 494.699219 8.160156 494.175781 8.335938 C 486.550781 10.992188 479.132812 14.140625 471.921875 17.78125 C 464.714844 21.421875 457.777344 25.523438 451.109375 30.085938 C 444.445312 34.644531 438.109375 39.628906 432.105469 45.027344 C 426.101562 50.429688 420.480469 56.207031 415.242188 62.351562 C 410.089844 68.433594 405.390625 74.851562 401.148438 81.601562 C 396.90625 88.347656 393.160156 95.363281 389.914062 102.644531 C 386.667969 109.921875 383.949219 117.398438 381.761719 125.0625 C 379.574219 132.726562 377.941406 140.511719 376.855469 148.40625 C 376.804688 148.925781 376.769531 149.445312 376.746094 149.964844 C 376.726562 150.484375 376.722656 151.003906 376.730469 151.527344 C 376.738281 152.046875 376.765625 152.566406 376.804688 153.085938 C 376.84375 153.605469 376.902344 154.121094 376.972656 154.636719 C 377.042969 155.152344 377.128906 155.667969 377.230469 156.175781 C 377.328125 156.6875 377.445312 157.195312 377.578125 157.699219 C 377.707031 158.203125 377.851562 158.703125 378.015625 159.199219 C 378.175781 159.691406 378.347656 160.183594 378.539062 160.667969 C 378.726562 161.152344 378.929688 161.632812 379.148438 162.105469 C 379.367188 162.578125 379.597656 163.042969 379.84375 163.503906 C 380.089844 163.960938 380.347656 164.414062 380.617188 164.859375 C 380.890625 165.300781 381.175781 165.738281 381.472656 166.164062 C 381.769531 166.59375 382.078125 167.011719 382.402344 167.417969 C 382.722656 167.828125 383.058594 168.226562 383.402344 168.617188 C 383.75 169.003906 384.105469 169.382812 384.472656 169.753906 C 384.839844 170.121094 385.21875 170.476562 385.609375 170.824219 C 386 171.167969 386.398438 171.503906 386.804688 171.824219 C 387.214844 172.148438 387.632812 172.457031 388.058594 172.753906 C 388.488281 173.054688 388.921875 173.339844 389.367188 173.609375 C 389.808594 173.882812 390.261719 174.140625 390.722656 174.386719 C 391.179688 174.632812 391.644531 174.863281 392.117188 175.082031 C 392.589844 175.296875 393.070312 175.503906 393.554688 175.691406 C 394.039062 175.882812 394.53125 176.054688 395.023438 176.21875 C 395.519531 176.378906 396.019531 176.523438 396.523438 176.65625 C 397.027344 176.785156 397.535156 176.902344 398.046875 177.003906 C 398.554688 177.105469 399.070312 177.191406 399.585938 177.261719 C 400.101562 177.332031 400.617188 177.386719 401.136719 177.429688 C 401.65625 177.46875 402.175781 177.496094 402.695312 177.503906 C 403.214844 177.515625 403.738281 177.507812 404.257812 177.488281 C 404.777344 177.464844 405.296875 177.429688 405.8125 177.378906 C 406.332031 177.328125 406.847656 177.261719 407.363281 177.179688 C 407.875 177.097656 408.386719 177 408.894531 176.886719 Z M 408.894531 176.886719 " fill-opacity="1" fill-rule="evenodd"/></svg>