<svg xmlns="http://www.w3.org/2000/svg" xmlns:xlink="http://www.w3.org/1999/xlink" width="1000" zoomAndPan="magnify" viewBox="0 0 750 749.999995" height="1000" preserveAspectRatio="xMidYMid meet" version="1.0"><defs><clipPath id="44315d6f39"><path d="M 0 80.15625 L 750 80.15625 L 750 669.65625 L 0 669.65625 Z M 0 80.15625 " clip-rule="nonzero"/></clipPath></defs><rect x="-75" width="900" fill="#ffffff" y="-74.999999" height="899.999994" fill-opacity="1"/><rect x="-75" width="900" fill="#ffffff" y="-74.999999" height="899.999994" fill-opacity="1"/><g clip-path="url(#44315d6f39)"><path fill="#000000" d="M 644.460938 133.910156 L 105.539062 133.910156 L 358.667969 328.566406 C 368.296875 335.96875 381.703125 335.96875 391.332031 328.566406 Z M 53.570312 161.515625 L 53.570312 615.902344 L 696.429688 615.902344 L 696.429688 161.515625 L 423.992188 371.011719 C 395.109375 393.222656 354.890625 393.222656 326.003906 371.011719 Z M 0 133.910156 C 0 104.335938 23.984375 80.355469 53.570312 80.355469 L 696.429688 80.355469 C 726.015625 80.355469 750 104.335938 750 133.910156 L 750 615.902344 C 750 645.480469 726.015625 669.457031 696.429688 669.457031 L 53.570312 669.457031 C 23.984375 669.457031 0 645.480469 0 615.902344 Z M 0 133.910156 " fill-opacity="1" fill-rule="evenodd"/></g></svg>