<svg width="534" height="168" xmlns="http://www.w3.org/2000/svg" xmlns:xlink="http://www.w3.org/1999/xlink" xml:space="preserve" overflow="hidden"><defs><clipPath id="clip0"><rect x="0" y="0" width="534" height="168"/></clipPath><clipPath id="clip1"><rect x="0" y="0" width="534" height="168"/></clipPath><clipPath id="clip2"><rect x="0" y="0" width="534" height="167"/></clipPath></defs><g clip-path="url(#clip0)"><g clip-path="url(#clip1)"><g clip-path="url(#clip2)"><path d="M281.43 41.8725C281.43 47.8782 276.592 52.716 270.587 52.716 264.581 52.716 259.743 47.8782 259.743 41.8725 259.743 35.8669 264.414 31.0291 270.587 31.0291 276.759 31.1959 281.43 36.0337 281.43 41.8725ZM236.722 63.7263C236.722 64.7273 236.722 66.3955 236.722 66.3955 236.722 66.3955 231.55 59.7226 220.54 59.7226 202.356 59.7226 188.176 73.5689 188.176 92.7535 188.176 111.771 202.189 125.784 220.54 125.784 231.717 125.784 236.722 118.945 236.722 118.945L236.722 121.781C236.722 123.115 237.723 124.116 239.057 124.116L252.57 124.116 252.57 61.3908C252.57 61.3908 240.225 61.3908 239.057 61.3908 237.723 61.3908 236.722 62.5586 236.722 63.7263ZM236.722 103.931C234.219 107.601 229.215 110.77 223.209 110.77 212.532 110.77 204.358 104.097 204.358 92.7535 204.358 81.4096 212.532 74.7366 223.209 74.7366 229.048 74.7366 234.386 78.0731 236.722 81.5764L236.722 103.931ZM262.579 61.3908 278.594 61.3908 278.594 124.116 262.579 124.116 262.579 61.3908ZM501.803 59.7226C490.793 59.7226 485.621 66.3955 485.621 66.3955L485.621 31.1959 469.606 31.1959 469.606 124.116C469.606 124.116 481.951 124.116 483.119 124.116 484.454 124.116 485.455 122.948 485.455 121.781L485.455 118.945C485.455 118.945 490.626 125.784 501.636 125.784 519.82 125.784 534 111.771 534 92.7535 534 73.7357 519.82 59.7226 501.803 59.7226ZM499.134 110.604C492.962 110.604 488.124 107.434 485.621 103.764L485.621 81.4096C488.124 78.0731 493.462 74.5698 499.134 74.5698 509.811 74.5698 517.985 81.2427 517.985 92.5867 517.985 103.931 509.811 110.604 499.134 110.604ZM461.265 86.9147 461.265 124.283 445.25 124.283 445.25 88.7498C445.25 78.4067 441.914 74.2362 432.905 74.2362 428.067 74.2362 423.063 76.7385 419.893 80.4086L419.893 124.116 403.878 124.116 403.878 61.3908 416.557 61.3908C417.891 61.3908 418.892 62.5586 418.892 63.7263L418.892 66.3955C423.563 61.5576 429.736 59.7226 435.908 59.7226 442.915 59.7226 448.754 61.7245 453.425 65.7282 459.097 70.3992 461.265 76.4049 461.265 86.9147ZM365.008 59.7226C353.998 59.7226 348.827 66.3955 348.827 66.3955L348.827 31.1959 332.812 31.1959 332.812 124.116C332.812 124.116 345.156 124.116 346.324 124.116 347.659 124.116 348.66 122.948 348.66 121.781L348.66 118.945C348.66 118.945 353.831 125.784 364.842 125.784 383.025 125.784 397.205 111.771 397.205 92.7535 397.372 73.7357 383.192 59.7226 365.008 59.7226ZM362.339 110.604C356.167 110.604 351.329 107.434 348.827 103.764L348.827 81.4096C351.329 78.0731 356.667 74.5698 362.339 74.5698 373.016 74.5698 381.19 81.2427 381.19 92.5867 381.19 103.931 373.016 110.604 362.339 110.604ZM318.965 59.7226C323.803 59.7226 326.306 60.5567 326.306 60.5567L326.306 75.4039C326.306 75.4039 312.96 70.8997 304.619 80.4086L304.619 124.283 288.604 124.283 288.604 61.3908C288.604 61.3908 300.948 61.3908 302.116 61.3908 303.451 61.3908 304.452 62.5586 304.452 63.7263L304.452 66.3955C307.455 62.8922 313.961 59.7226 318.965 59.7226ZM152.643 118.444C151.809 116.442 150.975 114.274 150.141 112.439 148.806 109.436 147.471 106.6 146.304 103.931L146.137 103.764C134.626 78.7404 122.281 53.3833 109.269 28.3599L108.769 27.3589C107.434 24.8566 106.099 22.1874 104.765 19.5183 103.097 16.5155 101.428 13.3458 98.7591 10.343 93.4208 3.6701 85.747 0 77.5726 0 69.2315 0 61.7245 3.6701 56.2193 10.0094 53.717 13.0122 51.8819 16.1818 50.2137 19.1846 48.8791 21.8538 47.5445 24.523 46.2099 27.0253L45.7095 28.0262C32.8641 53.0497 20.3524 78.4067 8.84161 103.43L8.67479 103.764C7.50703 106.433 6.17245 109.269 4.83786 112.272 4.00375 114.107 3.16963 116.109 2.33552 118.277 0.166823 124.45-0.500469 130.289 0.333646 136.294 2.1687 148.806 10.5098 159.316 22.0206 163.987 26.358 165.822 30.8622 166.656 35.5333 166.656 36.8679 166.656 38.5361 166.489 39.8707 166.322 45.3758 165.655 51.0478 163.82 56.553 160.65 63.3927 156.813 69.8988 151.308 77.239 143.301 84.5792 151.308 91.2521 156.813 97.925 160.65 103.43 163.82 109.102 165.655 114.607 166.322 115.942 166.489 117.61 166.656 118.945 166.656 123.616 166.656 128.287 165.822 132.457 163.987 144.135 159.316 152.309 148.639 154.144 136.294 155.479 130.455 154.812 124.617 152.643 118.444ZM77.4058 127.119C68.3974 115.775 62.5586 105.098 60.5567 96.09 59.7226 92.253 59.5558 88.9166 60.0562 85.9138 60.3899 83.2446 61.3908 80.9091 62.7254 78.9072 65.895 74.403 71.2334 71.567 77.4058 71.567 83.5783 71.567 89.0834 74.2362 92.0862 78.9072 93.4208 80.9091 94.4217 83.2446 94.7554 85.9138 95.2559 88.9166 95.089 92.4199 94.2549 96.09 92.253 104.932 86.4142 115.608 77.4058 127.119ZM143.968 134.96C142.8 143.634 136.962 151.142 128.787 154.478 124.784 156.146 120.446 156.647 116.109 156.146 111.938 155.646 107.768 154.311 103.43 151.809 97.4246 148.472 91.4189 143.301 84.4124 135.627 95.4227 122.114 102.096 109.769 104.598 98.7591 105.766 93.5876 105.933 88.9166 105.432 84.5792 104.765 80.4086 103.263 76.5717 100.928 73.2352 95.7563 65.7282 87.0815 61.3908 77.4058 61.3908 67.7301 61.3908 59.0553 65.895 53.8838 73.2352 51.5483 76.5717 50.0469 80.4086 49.3796 84.5792 48.7123 88.9166 48.8791 93.7544 50.2137 98.7591 52.716 109.769 59.5558 122.281 70.3992 135.794 63.5595 143.468 57.3871 148.639 51.3814 151.976 47.044 154.478 42.8735 155.813 38.7029 156.313 34.1987 156.813 29.8613 156.146 26.0244 154.645 17.85 151.308 12.0112 143.801 10.8435 135.127 10.343 130.956 10.6767 126.785 12.3449 122.114 12.8454 120.446 13.6795 118.778 14.5136 116.776 15.6813 114.107 17.0159 111.271 18.3505 108.435L18.5173 108.101C30.0281 83.2446 42.373 57.8875 55.2184 33.1978L55.7188 32.1968C57.0534 29.6945 58.388 27.0253 59.7226 24.523 61.0572 21.8538 62.5586 19.3515 64.3936 17.1828 67.8969 13.179 72.5679 11.0103 77.7394 11.0103 82.911 11.0103 87.582 13.179 91.0853 17.1828 92.9203 19.3515 94.4217 21.8538 95.7563 24.523 97.0909 27.0253 98.4255 29.6945 99.7601 32.1968L100.261 33.1978C112.939 58.0544 125.284 83.4114 136.795 108.268L136.795 108.435C138.129 111.104 139.297 114.107 140.632 116.776 141.466 118.778 142.3 120.446 142.8 122.114 144.135 126.452 144.635 130.622 143.968 134.96Z" fill="#FE385C" fill-rule="nonzero" fill-opacity="1" transform="matrix(1 0 0 1.00075 0 0.10956)"/></g></g></g></svg>