<svg width="1985" height="651" xmlns="http://www.w3.org/2000/svg" xmlns:xlink="http://www.w3.org/1999/xlink" xml:space="preserve" overflow="hidden"><defs><clipPath id="clip0"><rect x="1239" y="536" width="541" height="580"/></clipPath><clipPath id="clip1"><rect x="1239" y="536" width="541" height="580"/></clipPath><clipPath id="clip2"><rect x="2014" y="539" width="1206" height="578"/></clipPath><clipPath id="clip3"><rect x="2014" y="539" width="1206" height="578"/></clipPath></defs><g transform="translate(-1237 -467)"><g><g clip-path="url(#clip0)"><g clip-path="url(#clip1)"><g><g><g><g><path d="M964.719 143.536C964.719 164.123 948.135 180.706 927.55 180.706 906.962 180.706 890.378 164.123 890.378 143.536 890.378 122.949 906.39 106.365 927.55 106.365 948.707 106.937 964.719 123.521 964.719 143.536ZM811.464 218.449C811.464 221.88 811.464 227.598 811.464 227.598 811.464 227.598 793.735 204.724 755.993 204.724 693.66 204.724 645.052 252.188 645.052 317.951 645.052 383.142 693.087 431.177 755.993 431.177 794.307 431.177 811.464 407.734 811.464 407.734L811.464 417.455C811.464 422.028 814.895 425.46 819.468 425.46L865.789 425.46 865.789 210.443C865.789 210.443 823.472 210.443 819.468 210.443 814.895 210.443 811.464 214.446 811.464 218.449ZM811.464 356.267C802.884 368.847 785.73 379.711 765.142 379.711 728.542 379.711 700.523 356.836 700.523 317.951 700.523 279.065 728.542 256.191 765.142 256.191 785.158 256.191 803.456 267.628 811.464 279.637L811.464 356.267ZM900.099 210.443 954.998 210.443 954.998 425.46 900.099 425.46 900.099 210.443ZM1720.14 204.724C1682.4 204.724 1664.67 227.598 1664.67 227.598L1664.67 106.937 1609.77 106.937 1609.77 425.46C1609.77 425.46 1652.09 425.46 1656.09 425.46 1660.67 425.46 1664.1 421.456 1664.1 417.455L1664.1 407.734C1664.1 407.734 1681.83 431.177 1719.57 431.177 1781.9 431.177 1830.51 383.142 1830.51 317.951 1830.51 252.76 1781.9 204.724 1720.14 204.724ZM1710.99 379.142C1689.83 379.142 1673.25 368.275 1664.67 355.695L1664.67 279.065C1673.25 267.628 1691.55 255.619 1710.99 255.619 1747.59 255.619 1775.61 278.493 1775.61 317.38 1775.61 356.267 1747.59 379.142 1710.99 379.142ZM1581.18 297.937 1581.18 426.032 1526.28 426.032 1526.28 304.227C1526.28 268.772 1514.85 254.476 1483.96 254.476 1467.38 254.476 1450.23 263.053 1439.36 275.634L1439.36 425.46 1384.46 425.46 1384.46 210.443 1427.92 210.443C1432.5 210.443 1435.93 214.446 1435.93 218.449L1435.93 227.598C1451.94 211.014 1473.1 204.724 1494.26 204.724 1518.28 204.724 1538.29 211.587 1554.3 225.311 1573.75 241.323 1581.18 261.91 1581.18 297.937ZM1251.22 204.724C1213.48 204.724 1195.75 227.598 1195.75 227.598L1195.75 106.937 1140.85 106.937 1140.85 425.46C1140.85 425.46 1183.17 425.46 1187.17 425.46 1191.75 425.46 1195.18 421.456 1195.18 417.455L1195.18 407.734C1195.18 407.734 1212.9 431.177 1250.65 431.177 1312.98 431.177 1361.59 383.142 1361.59 317.951 1362.16 252.76 1313.55 204.724 1251.22 204.724ZM1242.07 379.142C1220.91 379.142 1204.33 368.275 1195.75 355.695L1195.75 279.065C1204.33 267.628 1222.63 255.619 1242.07 255.619 1278.67 255.619 1306.69 278.493 1306.69 317.38 1306.69 356.267 1278.67 379.142 1242.07 379.142ZM1093.39 204.724C1109.97 204.724 1118.55 207.583 1118.55 207.583L1118.55 258.478C1118.55 258.478 1072.8 243.038 1044.21 275.634L1044.21 426.032 989.311 426.032 989.311 210.443C989.311 210.443 1031.63 210.443 1035.63 210.443 1040.21 210.443 1043.64 214.446 1043.64 218.449L1043.64 227.598C1053.93 215.589 1076.23 204.724 1093.39 204.724ZM523.248 406.016C520.389 399.154 517.53 391.722 514.671 385.432 510.095 375.138 505.519 365.416 501.518 356.267L500.946 355.695C461.487 269.916 419.169 182.994 374.565 97.2154L372.851 93.7841C368.275 85.2064 363.699 76.0566 359.126 66.9071 353.408 56.6138 347.687 45.7483 338.538 35.455 320.239 12.5808 293.934 0 265.913 0 237.32 0 211.587 12.5808 192.715 34.3114 184.137 44.6048 177.847 55.4699 172.128 65.7633 167.554 74.913 162.979 84.0629 158.404 92.6405L156.688 96.0715C112.655 181.85 69.7664 268.772 30.3083 354.55L29.7365 355.695C25.7335 364.844 21.1587 374.565 16.5838 384.859 13.7245 391.15 10.8652 398.012 8.00597 405.444 0.571856 426.604-1.71557 446.62 1.14371 467.205 7.43413 510.095 36.0267 546.122 75.4848 562.134 90.3531 568.424 105.793 571.283 121.805 571.283 126.38 571.283 132.099 570.711 136.674 570.138 155.545 567.852 174.988 561.562 193.859 550.695 217.305 537.542 239.607 518.672 264.769 491.224 289.931 518.672 312.805 537.542 335.679 550.695 354.55 561.562 373.993 567.852 392.863 570.138 397.44 570.711 403.158 571.283 407.734 571.283 423.746 571.283 439.757 568.424 454.052 562.134 494.083 546.122 522.103 509.522 528.393 467.205 532.969 447.189 530.683 427.177 523.248 406.016ZM265.341 435.754C234.461 396.867 214.446 360.267 207.583 329.389 204.724 316.236 204.152 304.799 205.868 294.506 207.012 285.356 210.443 277.35 215.018 270.487 225.883 255.047 244.182 245.326 265.341 245.326 286.5 245.326 305.371 254.476 315.664 270.487 320.239 277.35 323.67 285.356 324.814 294.506 326.529 304.799 325.957 316.808 323.098 329.389 316.236 359.698 296.221 396.295 265.341 435.754ZM493.511 462.632C489.507 492.366 469.495 518.102 441.471 529.538 427.749 535.256 412.879 536.973 398.012 535.256 383.714 533.542 369.42 528.966 354.55 520.389 333.964 508.95 313.377 491.224 289.359 464.918 327.101 418.597 349.977 376.279 358.553 338.538 362.557 320.811 363.13 304.799 361.412 289.931 359.126 275.634 353.977 262.482 345.973 251.044 328.245 225.311 298.508 210.443 265.341 210.443 232.173 210.443 202.437 225.883 184.709 251.044 176.703 262.482 171.557 275.634 169.269 289.931 166.982 304.799 167.554 321.382 172.128 338.538 180.706 376.279 204.152 419.169 241.323 465.491 217.877 491.797 196.718 509.522 176.131 520.961 161.263 529.538 146.967 534.114 132.67 535.828 117.23 537.542 102.362 535.256 89.2095 530.11 61.1884 518.672 41.1734 492.938 37.1706 463.204 35.455 448.906 36.5989 434.609 42.3173 418.597 44.033 412.879 46.8922 407.161 49.7514 400.299 53.7542 391.15 58.3291 381.428 62.904 371.706L63.4758 370.561C102.934 285.356 145.251 198.434 189.284 113.799L191 110.368C195.574 101.79 200.149 92.6405 204.724 84.0629 209.299 74.913 214.446 66.3354 220.736 58.9012 232.745 45.1765 248.757 37.7424 266.484 37.7424 284.212 37.7424 300.224 45.1765 312.233 58.9012 318.523 66.3354 323.67 74.913 328.245 84.0629 332.82 92.6405 337.395 101.79 341.97 110.368L343.687 113.799C387.146 199.006 429.463 285.927 468.922 371.134L468.922 371.706C473.495 380.855 477.499 391.15 482.075 400.299 484.934 407.161 487.793 412.879 489.507 418.597 494.083 433.467 495.797 447.762 493.511 462.632Z" fill="#FE385C" fill-rule="nonzero" fill-opacity="1" transform="matrix(1 0 0 1.00442 1240 537.377)"/></g></g></g></g></g></g><g clip-path="url(#clip2)"><g clip-path="url(#clip3)"><g><g><g><g><path d="M966.675 143.827C966.675 164.455 950.057 181.073 929.431 181.073 908.801 181.073 892.183 164.455 892.183 143.827 892.183 123.198 908.228 106.581 929.431 106.581 950.631 107.154 966.675 123.771 966.675 143.827ZM813.109 218.892C813.109 222.33 813.109 228.06 813.109 228.06 813.109 228.06 795.344 205.139 757.526 205.139 695.066 205.139 646.36 252.7 646.36 318.596 646.36 383.919 694.493 432.052 757.526 432.052 795.918 432.052 813.109 408.561 813.109 408.561L813.109 418.302C813.109 422.884 816.547 426.322 821.13 426.322L867.545 426.322 867.545 210.869C867.545 210.869 825.142 210.869 821.13 210.869 816.547 210.869 813.109 214.881 813.109 218.892ZM813.109 356.989C804.512 369.595 787.324 380.48 766.694 380.48 730.02 380.48 701.943 357.56 701.943 318.596 701.943 279.631 730.02 256.71 766.694 256.71 786.75 256.71 805.085 268.171 813.109 280.204L813.109 356.989ZM901.925 210.869 956.934 210.869 956.934 426.322 901.925 426.322 901.925 210.869ZM1723.63 205.139C1685.81 205.139 1668.04 228.06 1668.04 228.06L1668.04 107.154 1613.04 107.154 1613.04 426.322C1613.04 426.322 1655.44 426.322 1659.45 426.322 1664.04 426.322 1667.47 422.31 1667.47 418.302L1667.47 408.561C1667.47 408.561 1685.24 432.052 1723.05 432.052 1785.51 432.052 1834.22 383.919 1834.22 318.596 1834.22 253.273 1785.51 205.139 1723.63 205.139ZM1714.46 379.91C1693.26 379.91 1676.64 369.022 1668.04 356.416L1668.04 279.631C1676.64 268.171 1694.98 256.138 1714.46 256.138 1751.13 256.138 1779.21 279.058 1779.21 318.023 1779.21 356.989 1751.13 379.91 1714.46 379.91ZM1584.39 298.541 1584.39 426.896 1529.38 426.896 1529.38 304.844C1529.38 269.317 1517.92 254.992 1486.97 254.992 1470.35 254.992 1453.17 263.587 1442.28 276.193L1442.28 426.322 1387.27 426.322 1387.27 210.869 1430.82 210.869C1435.4 210.869 1438.84 214.881 1438.84 218.892L1438.84 228.06C1454.88 211.442 1476.09 205.139 1497.29 205.139 1521.36 205.139 1541.41 212.016 1557.46 225.768 1576.94 241.812 1584.39 262.441 1584.39 298.541ZM1253.75 205.139C1215.94 205.139 1198.18 228.06 1198.18 228.06L1198.18 107.154 1143.17 107.154 1143.17 426.322C1143.17 426.322 1185.57 426.322 1189.58 426.322 1194.16 426.322 1197.6 422.31 1197.6 418.302L1197.6 408.561C1197.6 408.561 1215.36 432.052 1253.18 432.052 1315.64 432.052 1364.35 383.919 1364.35 318.596 1364.92 253.273 1316.21 205.139 1253.75 205.139ZM1244.59 379.91C1223.39 379.91 1206.77 369.022 1198.18 356.416L1198.18 279.631C1206.77 268.171 1225.1 256.138 1244.59 256.138 1281.26 256.138 1309.34 279.058 1309.34 318.023 1309.34 356.989 1281.26 379.91 1244.59 379.91ZM1095.6 205.139C1112.22 205.139 1120.82 208.004 1120.82 208.004L1120.82 259.003C1120.82 259.003 1074.98 243.531 1046.33 276.193L1046.33 426.896 991.317 426.896 991.317 210.869C991.317 210.869 1033.72 210.869 1037.73 210.869 1042.31 210.869 1045.75 214.881 1045.75 218.892L1045.75 228.06C1056.07 216.027 1078.42 205.139 1095.6 205.139ZM524.309 406.84C521.444 399.963 518.579 392.516 515.715 386.213 511.129 375.898 506.544 366.157 502.535 356.989L501.962 356.416C462.423 270.463 420.019 183.365 375.325 97.4126L373.607 93.9743C369.022 85.3792 364.436 76.2108 359.854 67.0428 354.125 56.7286 348.392 45.8411 339.225 35.5269 320.888 12.6063 294.53 0 266.452 0 237.801 0 212.016 12.6063 193.106 34.381 184.511 44.6952 178.208 55.5824 172.478 65.8966 167.893 75.0649 163.309 84.2333 158.725 92.8284L157.006 96.2663C112.884 182.219 69.9078 269.317 30.3698 355.269L29.7968 356.416C25.7857 365.583 21.2016 375.325 16.6174 385.64 13.7524 391.943 10.8873 398.819 8.02221 406.266 0.573015 427.47-1.71905 447.526 1.14603 468.152 7.4492 511.129 36.0998 547.23 75.6379 563.274 90.5363 569.577 106.008 572.442 122.052 572.442 126.636 572.442 132.366 571.868 136.951 571.294 155.86 569.003 175.343 562.7 194.252 551.812 217.746 538.632 240.093 519.723 265.306 492.22 290.519 519.723 313.439 538.632 336.36 551.812 355.269 562.7 374.751 569.003 393.66 571.294 398.246 571.868 403.975 572.442 408.561 572.442 424.605 572.442 440.649 569.577 454.973 563.274 495.085 547.23 523.162 510.556 529.465 468.152 534.05 448.096 531.759 428.043 524.309 406.84ZM265.879 436.637C234.936 397.672 214.881 360.998 208.004 330.057 205.139 316.877 204.566 305.417 206.285 295.103 207.431 285.934 210.869 277.912 215.454 271.036 226.341 255.565 244.677 245.823 265.879 245.823 287.081 245.823 305.99 254.992 316.304 271.036 320.888 277.912 324.326 285.934 325.472 295.103 327.192 305.417 326.618 317.45 323.753 330.057 316.877 360.428 296.822 397.098 265.879 436.637ZM494.511 463.57C490.499 493.364 470.447 519.153 442.367 530.612 428.617 536.341 413.716 538.062 398.819 536.341 384.492 534.624 370.169 530.038 355.269 521.444 334.641 509.982 314.012 492.22 289.946 465.861 327.765 419.446 350.686 377.042 359.28 339.225 363.292 321.461 363.866 305.417 362.145 290.519 359.854 276.193 354.695 263.014 346.675 251.553 328.91 225.768 299.114 210.869 265.879 210.869 232.644 210.869 202.847 226.341 185.084 251.553 177.062 263.014 171.905 276.193 169.612 290.519 167.32 305.417 167.893 322.034 172.478 339.225 181.073 377.042 204.566 420.019 241.812 466.435 218.319 492.794 197.117 510.556 176.488 522.018 161.59 530.612 147.265 535.197 132.939 536.915 117.468 538.632 102.57 536.341 89.3904 531.185 61.3124 519.723 41.2569 493.938 37.246 464.144 35.5269 449.817 36.6731 435.49 42.4031 419.446 44.1223 413.716 46.9873 407.987 49.8523 401.11 53.8632 391.943 58.4474 382.201 63.0316 372.46L63.6045 371.313C103.143 285.934 145.546 198.836 189.668 114.03L191.387 110.592C195.971 101.997 200.555 92.8284 205.139 84.2333 209.724 75.0649 214.881 66.4699 221.184 59.0207 233.217 45.2681 249.261 37.8189 267.025 37.8189 284.788 37.8189 300.833 45.2681 312.866 59.0207 319.169 66.4699 324.326 75.0649 328.91 84.2333 333.495 92.8284 338.079 101.997 342.663 110.592L344.383 114.03C387.931 199.409 430.334 286.507 469.873 371.886L469.873 372.46C474.455 381.628 478.467 391.943 483.053 401.11 485.917 407.987 488.782 413.716 490.499 419.446 495.085 434.346 496.802 448.669 494.511 463.57Z" fill="#FE385C" fill-rule="nonzero" fill-opacity="1" transform="matrix(1 0 0 1.00238 1385.78 539.377)"/></g></g></g></g></g></g><g><g><g><g><path d="M70.4038 498.284 70.4038 209.532C70.4038 183.51 77.9955 162.741 93.1788 147.227 108.362 131.713 129.968 123.955 157.997 123.955 168.34 123.955 178.259 125.207 187.754 127.71 197.269 130.213 205.368 134.133 212.049 139.47L197.528 176.021C192.522 172.008 186.844 168.916 180.493 166.744 174.163 164.572 167.492 163.486 160.48 163.486 146.476 163.486 135.802 167.406 128.458 175.246 121.115 183.086 117.443 194.68 117.443 210.029L117.443 245.556 118.467 267.587 118.467 498.284 70.4038 498.284ZM25.3814 272.582 25.3814 233.052 194.518 233.052 194.518 272.582 25.3814 272.582Z" fill="#FD395C" fill-rule="nonzero" fill-opacity="1" transform="matrix(1.00383 0 0 1 1877 469)"/></g></g></g></g></g></g></svg>